<svg width="48" height="48" viewBox="0 0 48 48" fill="none" xmlns="http://www.w3.org/2000/svg">
<rect width="48" height="48" rx="24" fill="#FEEBC8"/>
<g clip-path="url(#clip0_110490_476)">
<path d="M33.5549 30.6013L25.7658 15.7263C25.6246 15.4569 25.4124 15.2313 25.1522 15.0739C24.892 14.9165 24.5937 14.8333 24.2895 14.8333C23.9854 14.8333 23.6871 14.9165 23.4269 15.0739C23.1666 15.2313 22.9544 15.4569 22.8133 15.7263L15.0233 30.6013C14.8902 30.8554 14.825 31.1394 14.8338 31.4261C14.8427 31.7127 14.9253 31.9922 15.0738 32.2376C15.2223 32.4829 15.4316 32.6858 15.6814 32.8266C15.9312 32.9674 16.2132 33.0414 16.4999 33.0413H32.0783C32.3651 33.0414 32.647 32.9674 32.8968 32.8266C33.1467 32.6858 33.356 32.4829 33.5044 32.2376C33.6529 31.9922 33.7356 31.7127 33.7444 31.4261C33.7533 31.1394 33.688 30.8554 33.5549 30.6013ZM23.4558 20.9538C23.4558 20.7328 23.5436 20.5208 23.6999 20.3646C23.8561 20.2083 24.0681 20.1205 24.2891 20.1205C24.5101 20.1205 24.7221 20.2083 24.8784 20.3646C25.0347 20.5208 25.1224 20.7328 25.1224 20.9538V25.9538C25.1224 26.1748 25.0347 26.3868 24.8784 26.5431C24.7221 26.6994 24.5101 26.7871 24.2891 26.7871C24.0681 26.7871 23.8561 26.6994 23.6999 26.5431C23.5436 26.3868 23.4558 26.1748 23.4558 25.9538V20.9538ZM24.3308 30.5455H24.3074C23.9788 30.5444 23.6633 30.4164 23.4269 30.188C23.1905 29.9597 23.0516 29.6489 23.0391 29.3205C23.0331 29.1572 23.0597 28.9943 23.1174 28.8413C23.175 28.6884 23.2626 28.5485 23.3749 28.4298C23.4873 28.3111 23.6222 28.216 23.7717 28.15C23.9212 28.084 24.0824 28.0485 24.2458 28.0455H24.2691C24.5977 28.0459 24.9134 28.1733 25.1501 28.4012C25.3868 28.6291 25.5262 28.9397 25.5391 29.268C25.5456 29.4317 25.5193 29.595 25.4617 29.7484C25.4041 29.9018 25.3165 30.0421 25.2039 30.1611C25.0913 30.2801 24.9561 30.3755 24.8061 30.4415C24.6562 30.5075 24.4946 30.5428 24.3308 30.5455Z" fill="#DD6B20"/>
</g>
<defs>
<clipPath id="clip0_110490_476">
<rect width="20" height="20" fill="white" transform="translate(14 14)"/>
</clipPath>
</defs>
</svg>
