<svg width="22" height="22" viewBox="0 0 22 22" fill="none" xmlns="http://www.w3.org/2000/svg">
<path d="M17.0724 15.7405L21.5 20.1671L20.0372 21.6299L15.6106 17.2022C13.9635 18.5226 11.9149 19.2407 9.80393 19.2377C4.66816 19.2377 0.5 15.0696 0.5 9.93381C0.5 4.79804 4.66816 0.629883 9.80393 0.629883C14.9397 0.629883 19.1079 4.79804 19.1079 9.93381C19.1109 12.0448 18.3927 14.0934 17.0724 15.7405ZM14.9986 14.9734C16.3106 13.6243 17.0433 11.8157 17.0403 9.93381C17.0403 5.93519 13.8015 2.69742 9.80393 2.69742C5.80531 2.69742 2.56754 5.93519 2.56754 9.93381C2.56754 13.9314 5.80531 17.1702 9.80393 17.1702C11.6858 17.1732 13.4944 16.4405 14.8436 15.1285L14.9986 14.9734V14.9734Z" fill="#969CB2"/>
</svg>
