<svg width="14" height="14" viewBox="0 0 14 14" fill="none" xmlns="http://www.w3.org/2000/svg">
<path d="M11.1543 4.17614H2.85492C2.81615 4.17598 2.77777 4.18392 2.74225 4.19945C2.70673 4.21498 2.67484 4.23776 2.64863 4.26633C2.62243 4.2949 2.60247 4.32862 2.59005 4.36535C2.57763 4.40208 2.57302 4.44099 2.57651 4.4796L3.29313 12.3508C3.31829 12.6276 3.44603 12.8849 3.65126 13.0724C3.85649 13.2598 4.12439 13.3637 4.40231 13.3636H9.60689C9.88482 13.3637 10.1527 13.2598 10.3579 13.0724C10.5632 12.8849 10.6909 12.6276 10.7161 12.3508L11.4316 4.4796C11.435 4.4411 11.4304 4.40231 11.4181 4.36569C11.4057 4.32907 11.3858 4.29542 11.3598 4.2669C11.3337 4.23833 11.302 4.2155 11.2666 4.19988C11.2312 4.18425 11.193 4.17616 11.1543 4.17614ZM6.03156 11.4148C6.03156 11.5255 5.98757 11.6318 5.90925 11.7101C5.83093 11.7884 5.72471 11.8324 5.61395 11.8324C5.50319 11.8324 5.39697 11.7884 5.31865 11.7101C5.24034 11.6318 5.19634 11.5255 5.19634 11.4148V6.40341C5.19634 6.29265 5.24034 6.18643 5.31865 6.10811C5.39697 6.02979 5.50319 5.9858 5.61395 5.9858C5.72471 5.9858 5.83093 6.02979 5.90925 6.10811C5.98757 6.18643 6.03156 6.29265 6.03156 6.40341V11.4148ZM8.81566 11.4148C8.81566 11.5255 8.77166 11.6318 8.69334 11.7101C8.61502 11.7884 8.5088 11.8324 8.39804 11.8324C8.28728 11.8324 8.18106 11.7884 8.10274 11.7101C8.02443 11.6318 7.98043 11.5255 7.98043 11.4148V6.40341C7.98043 6.29265 8.02443 6.18643 8.10274 6.10811C8.18106 6.02979 8.28728 5.9858 8.39804 5.9858C8.5088 5.9858 8.61502 6.02979 8.69334 6.10811C8.77166 6.18643 8.81566 6.29265 8.81566 6.40341V11.4148ZM12.5731 2.22727H9.92818C9.89126 2.22727 9.85585 2.21261 9.82975 2.1865C9.80364 2.16039 9.78897 2.12499 9.78897 2.08807V1.39205C9.78897 1.02285 9.64231 0.66878 9.38125 0.407721C9.12019 0.146662 8.76612 0 8.39693 0L5.61284 0C5.24364 0 4.88957 0.146662 4.62851 0.407721C4.36745 0.66878 4.22079 1.02285 4.22079 1.39205V2.08807C4.22079 2.12499 4.20613 2.16039 4.18002 2.1865C4.15391 2.21261 4.11851 2.22727 4.08159 2.22727H1.4367C1.28902 2.22727 1.14739 2.28594 1.04297 2.39036C0.938547 2.49478 0.879883 2.63641 0.879883 2.78409C0.879883 2.93177 0.938547 3.0734 1.04297 3.17782C1.14739 3.28224 1.28902 3.34091 1.4367 3.34091H12.5731C12.7207 3.34091 12.8624 3.28224 12.9668 3.17782C13.0712 3.0734 13.1299 2.93177 13.1299 2.78409C13.1299 2.63641 13.0712 2.49478 12.9668 2.39036C12.8624 2.28594 12.7207 2.22727 12.5731 2.22727ZM5.33443 2.08807V1.39205C5.33443 1.31821 5.36376 1.24739 5.41597 1.19518C5.46818 1.14297 5.539 1.11364 5.61284 1.11364H8.39693C8.47077 1.11364 8.54158 1.14297 8.59379 1.19518C8.64601 1.24739 8.67534 1.31821 8.67534 1.39205V2.08807C8.67534 2.12499 8.66067 2.16039 8.63457 2.1865C8.60846 2.21261 8.57305 2.22727 8.53613 2.22727H5.47363C5.43671 2.22727 5.40131 2.21261 5.3752 2.1865C5.34909 2.16039 5.33443 2.12499 5.33443 2.08807Z" fill="currentColor"/>
</svg>
